<?xml version="1.0" encoding="utf-8"?>
<!-- Generator: Adobe Illustrator 16.0.0, SVG Export Plug-In . SVG Version: 6.00 Build 0)  -->
<!DOCTYPE svg PUBLIC "-//W3C//DTD SVG 1.1//EN" "http://www.w3.org/Graphics/SVG/1.1/DTD/svg11.dtd">
<svg version="1.1" id="Layer_1" xmlns="http://www.w3.org/2000/svg" xmlns:xlink="http://www.w3.org/1999/xlink" x="0px" y="0px"
	 width="142.539px" height="106px" viewBox="0 0 142.539 106" enable-background="new 0 0 142.539 106" xml:space="preserve">
<g>
	<path fill="#C6862B" d="M67.646,20.651H21.616V50.66c2.118-2.881,5.17-5.169,9.155-6.866c3.984-1.695,8.349-2.543,13.097-2.543
		c6.358,0,11.635,1.335,15.831,4.005c4.196,2.67,7.289,6.189,9.282,10.554c1.991,4.367,2.988,9.219,2.988,14.56
		c0,9.241-2.587,16.784-7.757,22.634c-5.171,5.849-12.759,8.773-22.761,8.773c-8.986,0-16.319-2.436-21.998-7.312
		c-5.68-4.873-8.859-11.422-9.537-19.646h11.444c0.932,5.257,3.115,9.346,6.548,12.271s7.776,4.387,13.033,4.387
		c6.527,0,11.444-1.949,14.75-5.849C59,81.729,60.653,76.6,60.653,70.242c0-6.187-1.697-11.019-5.086-14.496
		c-3.392-3.475-8.182-5.213-14.369-5.213c-4.409,0-8.265,0.954-11.571,2.861c-3.306,1.908-5.808,4.473-7.502,7.693H10.935V10.352
		h56.711V20.651z"/>
	<path fill="#C6862B" d="M127.791,101.141l-18.184-26.703l-16.403,26.703H80.361l22.889-35.985L80.234,31.332h13.225l17.674,25.94
		l16.149-25.94h12.843l-22.761,35.095l23.65,34.713H127.791z"/>
</g>
<rect y="-7.323" fill="none" width="142.539" height="181.323"/>
</svg>
