<?xml version="1.0" encoding="utf-8"?>
<!-- Generator: Adobe Illustrator 16.0.0, SVG Export Plug-In . SVG Version: 6.00 Build 0)  -->
<!DOCTYPE svg PUBLIC "-//W3C//DTD SVG 1.1//EN" "http://www.w3.org/Graphics/SVG/1.1/DTD/svg11.dtd">
<svg version="1.1" id="Layer_1" xmlns="http://www.w3.org/2000/svg" xmlns:xlink="http://www.w3.org/1999/xlink" x="0px" y="0px"
	 width="472px" height="297.422px" viewBox="0 0 472 297.422" enable-background="new 0 0 472 297.422" xml:space="preserve">
<g>
	<defs>
		<rect id="SVGID_1_" width="472" height="297.422"/>
	</defs>
	<clipPath id="SVGID_2_">
		<use xlink:href="#SVGID_1_"  overflow="visible"/>
	</clipPath>
	<path clip-path="url(#SVGID_2_)" fill="#C6862B" d="M467.102,26.527c-3.039-1.8-6.797-1.871-9.898-0.179L348.906,85.479V50
		c-0.031-27.602-22.398-49.969-50-50H50C22.398,0.031,0.031,22.397,0,50v197.422c0.031,27.602,22.398,49.969,50,50h248.906
		c27.602-0.031,49.969-22.398,50-50v-34.836l108.301,59.133c3.098,1.691,6.859,1.625,9.895-0.176
		c3.039-1.806,4.898-5.074,4.898-8.602V35.125C472,31.594,470.137,28.328,467.102,26.527 M328.898,247.426
		c-0.016,16.562-13.438,29.979-30,30H50c-16.562-0.021-29.98-13.438-30-30V50c0.02-16.559,13.438-29.98,30-30h248.906
		c16.559,0.02,29.98,13.441,30,30L328.898,247.426z M452,246.09l-103.094-56.289v-81.535L452,51.979V246.09z"/>
</g>
<g>
	<path fill="#C6862B" d="M150.399,178.022h-35.985l-6.357,18.056H89.11l33.061-88.754h20.472l32.934,88.754h-18.946L150.399,178.022
		z M145.567,164.416l-13.224-37.892l-13.224,37.892H145.567z"/>
	<path fill="#C6862B" d="M232.032,196.078l-20.98-34.968h-7.884v34.968h-17.929v-89.772h34.205c10.427,0,18.374,2.543,23.842,7.629
		c5.468,5.086,8.201,11.784,8.201,20.091c0,6.783-1.888,12.461-5.658,17.039c-3.772,4.577-9.219,7.629-16.339,9.155l22.379,35.857
		H232.032z M203.167,148.776h14.75c10.256,0,15.386-4.534,15.386-13.606c0-4.323-1.251-7.693-3.751-10.108
		c-2.501-2.416-6.38-3.624-11.635-3.624h-14.75V148.776z"/>
</g>
</svg>
