<?xml version="1.0" encoding="utf-8"?>
<!-- Generator: Adobe Illustrator 16.0.0, SVG Export Plug-In . SVG Version: 6.00 Build 0)  -->
<!DOCTYPE svg PUBLIC "-//W3C//DTD SVG 1.1//EN" "http://www.w3.org/Graphics/SVG/1.1/DTD/svg11.dtd">
<svg version="1.1" id="Layer_1" xmlns="http://www.w3.org/2000/svg" xmlns:xlink="http://www.w3.org/1999/xlink" x="0px" y="0px"
	 width="512px" height="478.413px" viewBox="0 0 512 478.413" enable-background="new 0 0 512 478.413" xml:space="preserve">
<g>
	<defs>
		<rect id="SVGID_1_" width="512" height="478.413"/>
	</defs>
	<clipPath id="SVGID_2_">
		<use xlink:href="#SVGID_1_"  overflow="visible"/>
	</clipPath>
	<path clip-path="url(#SVGID_2_)" fill="#C88500" d="M398.551,155.796c-4.315-6.667-11.637-10.648-19.58-10.648H133.204
		c-7.931,0-15.244,3.971-19.563,10.621l-55.876,86.029c-5.71,8.79-4.828,20.396,2.145,28.223l178.662,200.58
		c4.422,4.964,10.77,7.812,17.418,7.812h0.001c6.647,0,12.998-2.847,17.419-7.811l178.682-200.592
		c6.963-7.816,7.853-19.411,2.162-28.195L398.551,155.796z M307.299,266L255.99,432.543L204.681,266H307.299z M209.518,246
		l46.472-71.819L302.462,246H209.518z M273.967,165.148h93.721l-46.847,72.44L273.967,165.148z M191.268,237.39l-46.729-72.241
		h93.474L191.268,237.39z M236.97,438.735L83.109,266h100.645L236.97,438.735z M328.227,266h100.654L275.009,438.74L328.227,266z
		 M433.136,246H339.22l46.928-72.564L433.136,246z M126.048,173.385L173.018,246H78.885L126.048,173.385z"/>
	<path clip-path="url(#SVGID_2_)" fill="#C88500" d="M30.333,246H10c-5.522,0-10,4.477-10,10s4.478,10,10,10h20.333
		c5.522,0,10-4.477,10-10S35.855,246,30.333,246"/>
	<path clip-path="url(#SVGID_2_)" fill="#C88500" d="M502,246h-20.333c-5.522,0-10,4.477-10,10s4.478,10,10,10H502
		c5.521,0,10-4.477,10-10S507.521,246,502,246"/>
	<path clip-path="url(#SVGID_2_)" fill="#C88500" d="M396.858,125.321c2.56,0,5.117-0.977,7.07-2.929l33.218-33.217
		c3.904-3.905,3.904-10.237,0-14.142c-3.906-3.905-10.236-3.905-14.144,0l-33.217,33.217c-3.905,3.905-3.905,10.237,0,14.142
		C391.74,124.345,394.299,125.321,396.858,125.321"/>
	<path clip-path="url(#SVGID_2_)" fill="#C88500" d="M108.504,122.213c1.953,1.953,4.512,2.929,7.071,2.929
		c2.559,0,5.118-0.977,7.071-2.929c3.905-3.905,3.905-10.237,0-14.142L89.43,74.854c-3.904-3.905-10.234-3.905-14.143,0
		c-3.905,3.905-3.905,10.237,0,14.142L108.504,122.213z"/>
	<path clip-path="url(#SVGID_2_)" fill="#C88500" d="M256.254,85.168c5.521,0,10-4.477,10-10V10c0-5.523-4.479-10-10-10
		c-5.522,0-10,4.477-10,10v65.168C246.254,80.691,250.731,85.168,256.254,85.168"/>
	<path clip-path="url(#SVGID_2_)" fill="#C88500" d="M256.25,118.997c2.63,0,5.21-1.06,7.069-2.93c1.87-1.86,2.931-4.44,2.931-7.07
		s-1.061-5.21-2.931-7.07c-1.859-1.86-4.439-2.93-7.069-2.93s-5.21,1.07-7.07,2.93c-1.86,1.86-2.93,4.44-2.93,7.07
		c0,2.64,1.069,5.21,2.93,7.07C251.04,117.937,253.62,118.997,256.25,118.997"/>
</g>
</svg>
