<?xml version="1.0" encoding="utf-8"?>
<!-- Generator: Adobe Illustrator 16.0.0, SVG Export Plug-In . SVG Version: 6.00 Build 0)  -->
<!DOCTYPE svg PUBLIC "-//W3C//DTD SVG 1.1//EN" "http://www.w3.org/Graphics/SVG/1.1/DTD/svg11.dtd">
<svg version="1.1" id="Layer_1" xmlns="http://www.w3.org/2000/svg" xmlns:xlink="http://www.w3.org/1999/xlink" x="0px" y="0px"
	 width="460px" height="512px" viewBox="0 0 460 512" enable-background="new 0 0 460 512" xml:space="preserve">
<g>
	<defs>
		<rect id="SVGID_1_" width="460" height="512"/>
	</defs>
	<clipPath id="SVGID_2_">
		<use xlink:href="#SVGID_1_"  overflow="visible"/>
	</clipPath>
	<path clip-path="url(#SVGID_2_)" fill="#D9B148" d="M340,416c5.52,0,10-4.48,10-10s-4.48-10-10-10s-10,4.48-10,10
		S334.48,416,340,416"/>
	<path clip-path="url(#SVGID_2_)" fill="#C88500" d="M10,512h440c5.522,0,10-4.477,10-10c0-61.729-40.111-119.908-95.378-138.337
		l-47.53-15.84l-17.063-34.127c15.372-15.646,26.045-36.349,29.644-57.941L331.801,243H350c16.542,0,30-13.458,30-30v-63
		C380,67.29,312.71,0,230,0C147.078,0,80,67.097,80,150v63c0,13.036,8.361,24.152,20,28.28V253c0,16.542,13.458,30,30,30h8.782
		c4.335,9.417,9.946,18.139,16.774,25.974c1.416,1.628,2.893,3.206,4.406,4.741l-17.054,34.108l-47.531,15.841
		C40.112,382.092,0,440.271,0,502C0,507.523,4.477,512,10,512 M230,483.086l-13.562-21.773c-0.152-0.243-0.314-0.48-0.486-0.711
		c-8.098-10.802-15.652-22.099-22.532-33.661l35.663-37.715l37.578,37.578c-6.926,11.647-14.506,22.991-22.611,33.796
		C243.56,461.253,244.255,460.224,230,483.086 M276.778,408.636l-33.948-33.948l42.736-45.193l13.604,27.209
		C293.006,374.541,285.501,391.942,276.778,408.636 M228.683,360.541l-19.524-19.525c6.859,1.445,13.852,2.184,20.841,2.184
		c5.471,0,10.943-0.457,16.353-1.346L228.683,360.541z M172.739,332.882l42.196,42.197l-31.718,33.542
		c-8.732-16.714-16.235-34.109-22.389-51.917L172.739,332.882z M439.599,492H248.01l12.301-19.748
		c10.027-13.4,19.302-27.574,27.564-42.132c0.05-0.088,0.097-0.178,0.147-0.266c0.006-0.012,0.012-0.021,0.018-0.032
		c11.055-19.5,20.509-40.047,28.164-61.213l42.093,14.027C402.668,397.433,435.637,442.461,439.599,492 M110,223
		c-5.514,0-10-4.486-10-10v-53h20.298c0.033,1.043,0.068,2.091,0.107,3.146c0.001,0.036,0.003,0.071,0.004,0.107v0.009
		c0.7,20.072,2.372,40.481,4.856,59.737L110,223L110,223z M319.922,149.79c0,0.032-0.001,0.065-0.001,0.098l-12.508-1.787
		c-33.981-4.852-66.065-20.894-90.342-45.172C215.195,101.054,212.652,100,210,100c-26.856,0-52.564,12.236-69.558,32.908
		C144.63,92.188,179.053,60,221.05,60h17.9c44.809,0,81.076,36.651,81.05,81.41C320,144.557,319.974,147.297,319.922,149.79
		 M360,213c0,5.514-4.486,10-10,10h-15.262c2.542-19.69,4.234-40.643,4.917-61.28c0.02-0.582,0.036-1.148,0.054-1.72H360V213z
		 M230,20c68.318,0,124.496,52.972,129.619,120h-19.635c-0.721-55.227-45.693-100-101.033-100h-17.9
		c-55.339,0-100.315,44.773-101.034,100H100.38C105.445,72.979,161.377,20,230,20 M120,253v-10h8.198l2.128,12.759
		c0.406,2.425,0.905,4.841,1.482,7.241H130C124.486,263,120,258.514,120,253 M181.72,283c4.128,11.639,15.243,20,28.28,20h20
		c16.575,0,30-13.424,30-30c0-16.542-13.458-30-30-30h-20c-13.327,0-24.278,8.608-28.297,20H152.54
		c-5.006-16.653-10.734-65.653-12-97.053L153.999,148c12.361-16.476,31.592-26.713,52.049-27.888
		c26.917,25.616,61.739,42.532,98.537,47.786l14.721,2.104c-0.982,20.885-2.993,41.843-5.875,61.118
		c-0.001,0.006-0.002,0.013-0.003,0.02c-0.916,6.197-1.638,10.185-3.481,21.324c-5.296,31.766-28.998,60.49-60.287,68.313
		c-12.877,3.215-26.443,3.214-39.313,0c-19.537-4.885-37.451-18.402-49.012-37.778H181.72z M200,273c0-5.521,4.478-10,10-10h20
		c5.514,0,10,4.486,10,10c0,5.522-4.479,10-10,10h-20C204.486,283,200,278.514,200,273 M101.702,382.637l42.094-14.027
		c7.712,21.324,17.266,42.052,28.463,61.739c0.019,0.034,0.037,0.068,0.056,0.101c0,0.002,0.001,0.002,0.001,0.003
		c8.181,14.389,17.389,28.45,27.372,41.799L211.99,492H20.4C24.363,442.461,57.332,397.433,101.702,382.637"/>
	<path clip-path="url(#SVGID_2_)" fill="#D9B148" d="M369.042,433.016c9.454,7.273,17.272,16.767,22.611,27.453
		c2.473,4.949,8.482,6.941,13.415,4.478c4.939-2.469,6.944-8.475,4.478-13.415c-6.683-13.377-16.472-25.262-28.309-34.367
		c-4.378-3.369-10.656-2.55-14.023,1.828C363.846,423.369,364.665,429.648,369.042,433.016"/>
</g>
</svg>
