<?xml version="1.0" encoding="utf-8"?>
<!-- Generator: Adobe Illustrator 16.0.0, SVG Export Plug-In . SVG Version: 6.00 Build 0)  -->
<!DOCTYPE svg PUBLIC "-//W3C//DTD SVG 1.1//EN" "http://www.w3.org/Graphics/SVG/1.1/DTD/svg11.dtd">
<svg version="1.1" id="Layer_1" xmlns="http://www.w3.org/2000/svg" xmlns:xlink="http://www.w3.org/1999/xlink" x="0px" y="0px"
	 width="511.999px" height="495px" viewBox="0 0 511.999 495" enable-background="new 0 0 511.999 495" xml:space="preserve">
<g>
	<defs>
		<rect id="SVGID_1_" width="511.999" height="495"/>
	</defs>
	<clipPath id="SVGID_2_">
		<use xlink:href="#SVGID_1_"  overflow="visible"/>
	</clipPath>
	<path clip-path="url(#SVGID_2_)" fill="#C6862B" d="M511.261,185.914c-1.897-5.84-7.164-9.934-13.293-10.332l-166.679-10.801
		L269.46,9.453C267.191,3.746,261.668,0,255.523,0c-6.142,0-11.666,3.746-13.935,9.453l-61.827,155.332L14.023,175.586
		c-6.117,0.398-11.375,4.48-13.281,10.309c-1.903,5.824-0.071,12.226,4.629,16.16l127.578,106.796L91.66,470.898
		c-1.519,5.953,0.746,12.227,5.718,15.836c4.966,3.613,11.638,3.827,16.829,0.547l141.319-89.324l141.316,89.324
		c5.203,3.285,11.871,3.059,16.832-0.547c4.969-3.609,7.235-9.887,5.719-15.836l-41.28-162.012l128.476-106.801
		C511.313,198.16,513.164,191.754,511.261,185.914 M351.648,291.875c-4.449,3.699-6.375,9.629-4.945,15.238l34.315,134.676
		l-117.479-74.254c-2.446-1.551-5.231-2.32-8.016-2.32c-2.781,0-5.563,0.77-8.011,2.32l-117.481,74.254l34.317-134.676
		c1.425-5.59-0.481-11.504-4.908-15.207l-106.101-88.82l137.829-8.981c5.776-0.375,10.819-4.043,12.96-9.417l51.396-129.126
		l51.397,129.126c2.142,5.378,7.188,9.046,12.969,9.417l138.567,8.981L351.648,291.875z"/>
	<path clip-path="url(#SVGID_2_)" fill="#C6862B" d="M342.037,224.953c-0.642-1.969-2.415-3.349-4.481-3.483l-56.179-3.64
		l-20.84-52.354c-0.766-1.924-2.627-3.186-4.698-3.186c-2.069,0-3.932,1.262-4.696,3.186l-20.84,52.355l-55.862,3.641
		c-2.062,0.133-3.834,1.509-4.477,3.474c-0.641,1.963-0.023,4.121,1.561,5.447l43,35.997l-13.916,54.618
		c-0.513,2.007,0.251,4.121,1.927,5.337c1.674,1.219,3.922,1.291,5.672,0.185l47.633-30.106l47.63,30.106
		c1.754,1.107,4.002,1.031,5.674-0.185c1.676-1.216,2.439-3.332,1.929-5.337l-13.914-54.606l43.303-35.999
		C342.053,229.08,342.677,226.921,342.037,224.953 M288.238,260.667c-1.499,1.247-2.148,3.246-1.666,5.136l11.565,45.394
		l-39.597-25.027c-0.824-0.522-1.763-0.782-2.702-0.782c-0.937,0-1.874,0.26-2.7,0.782l-39.597,25.027l11.566-45.394
		c0.481-1.884-0.162-3.877-1.654-5.125l-35.761-29.937l46.455-3.028c1.947-0.126,3.647-1.362,4.368-3.173l17.323-43.523
		l17.324,43.523c0.721,1.812,2.423,3.048,4.372,3.173l46.704,3.028L288.238,260.667z"/>
	<path clip-path="url(#SVGID_2_)" fill="#C6862B" d="M271,480c0,8.285-6.716,15-15,15c-8.285,0-15-6.715-15-15s6.715-15,15-15
		C264.284,465,271,471.715,271,480"/>
	<path clip-path="url(#SVGID_2_)" fill="#C6862B" d="M460.363,320.602c-7.879-2.559-16.341,1.754-18.902,9.633
		c-2.559,7.879,1.754,16.34,9.632,18.898c7.879,2.563,16.34-1.75,18.903-9.629C472.554,331.625,468.242,323.16,460.363,320.602"/>
	<path clip-path="url(#SVGID_2_)" fill="#C6862B" d="M388.254,87.977c-6.703-4.868-16.082-3.383-20.953,3.32
		c-4.867,6.703-3.383,16.082,3.319,20.953c6.699,4.867,16.082,3.383,20.949-3.32C396.441,102.227,394.956,92.848,388.254,87.977"/>
	<path clip-path="url(#SVGID_2_)" fill="#C6862B" d="M144.699,91.285c-4.871-6.703-14.25-8.187-20.953-3.316
		c-6.699,4.867-8.187,14.25-3.316,20.949c4.871,6.703,14.25,8.187,20.953,3.32C148.082,107.367,149.57,97.988,144.699,91.285"/>
	<path clip-path="url(#SVGID_2_)" fill="#C6862B" d="M70.539,330.273c-2.559-7.879-11.019-12.191-18.902-9.629
		c-7.879,2.559-12.188,11.02-9.629,18.898c2.558,7.883,11.023,12.191,18.902,9.633S73.102,338.152,70.539,330.273"/>
</g>
</svg>
