<?xml version="1.0" encoding="utf-8"?>
<!-- Generator: Adobe Illustrator 16.0.0, SVG Export Plug-In . SVG Version: 6.00 Build 0)  -->
<!DOCTYPE svg PUBLIC "-//W3C//DTD SVG 1.1//EN" "http://www.w3.org/Graphics/SVG/1.1/DTD/svg11.dtd">
<svg version="1.1" id="Layer_1" xmlns="http://www.w3.org/2000/svg" xmlns:xlink="http://www.w3.org/1999/xlink" x="0px" y="0px"
	 width="465.904px" height="512.001px" viewBox="0 0 465.904 512.001" enable-background="new 0 0 465.904 512.001"
	 xml:space="preserve">
<g>
	<defs>
		<rect id="SVGID_1_" width="465.904" height="512.001"/>
	</defs>
	<clipPath id="SVGID_2_">
		<use xlink:href="#SVGID_1_"  overflow="visible"/>
	</clipPath>
	<path clip-path="url(#SVGID_2_)" fill="#C88500" d="M381.941,344.077c-26.742,0-50.587,12.583-65.975,32.123l-154.093-88.964
		c3.887-9.662,6.049-20.198,6.049-31.236c0-11.037-2.162-21.573-6.049-31.235L315.967,135.8
		c15.388,19.54,39.232,32.124,65.975,32.124c46.298,0,83.963-37.666,83.963-83.962C465.904,37.666,428.239,0,381.941,0
		c-46.297,0-83.962,37.664-83.962,83.961c0,11.038,2.163,21.575,6.052,31.24L149.94,204.165
		c-15.387-19.542-39.232-32.127-65.978-32.127C37.665,172.038,0,209.704,0,256s37.665,83.963,83.962,83.963
		c26.746,0,50.591-12.585,65.978-32.127l154.091,88.963c-3.889,9.664-6.052,20.202-6.052,31.241
		c0,46.298,37.665,83.961,83.962,83.961c46.298,0,83.963-37.665,83.963-83.961S428.239,344.077,381.941,344.077 M381.941,23.807
		c33.169,0,60.154,26.985,60.154,60.154c0,33.169-26.984,60.154-60.154,60.154c-33.168,0-60.154-26.985-60.154-60.154
		C321.787,50.792,348.773,23.807,381.941,23.807 M83.962,316.155c-33.168,0-60.154-26.986-60.154-60.155
		c0-33.168,26.984-60.154,60.154-60.154c33.169,0,60.155,26.986,60.155,60.154C144.117,289.169,117.131,316.155,83.962,316.155
		 M381.941,488.192c-33.168,0-60.154-26.984-60.154-60.153s26.984-60.155,60.154-60.155c33.169,0,60.154,26.986,60.154,60.155
		S415.11,488.192,381.941,488.192"/>
	<path clip-path="url(#SVGID_2_)" fill="#C88500" d="M83.962,220.606c-19.516,0-35.394,15.877-35.394,35.394
		c0,6.571,5.33,11.902,11.904,11.902c6.575,0,11.904-5.331,11.904-11.902c0-6.389,5.197-11.586,11.586-11.586
		c6.575,0,11.904-5.331,11.904-11.904C95.866,225.937,90.537,220.606,83.962,220.606"/>
</g>
</svg>
