<?xml version="1.0" encoding="utf-8"?>
<!-- Generator: Adobe Illustrator 16.0.0, SVG Export Plug-In . SVG Version: 6.00 Build 0)  -->
<!DOCTYPE svg PUBLIC "-//W3C//DTD SVG 1.1//EN" "http://www.w3.org/Graphics/SVG/1.1/DTD/svg11.dtd">
<svg version="1.1" id="Layer_1" xmlns="http://www.w3.org/2000/svg" xmlns:xlink="http://www.w3.org/1999/xlink" x="0px" y="0px"
	 width="108.457px" height="91.769px" viewBox="0 0 108.457 91.769" enable-background="new 0 0 108.457 91.769"
	 xml:space="preserve">
<g>
	<defs>
		<rect id="SVGID_1_" width="108.457" height="91.769"/>
	</defs>
	<clipPath id="SVGID_2_">
		<use xlink:href="#SVGID_1_"  overflow="visible"/>
	</clipPath>
	<path clip-path="url(#SVGID_2_)" fill="#C5862B" d="M37.543,0H12.516C9.039,0,6.082,1.218,3.648,3.648
		C1.219,6.082,0,9.039,0,12.515v25.028c0,3.476,1.215,6.429,3.648,8.863c2.434,2.433,5.391,3.648,8.868,3.648h14.597
		c1.739,0,3.215,0.609,4.434,1.825c1.215,1.218,1.824,2.694,1.824,4.433v2.086c0,4.606-1.629,8.54-4.887,11.797
		c-3.261,3.258-7.191,4.888-11.796,4.888h-4.172c-1.133,0-2.11,0.413-2.934,1.237c-0.828,0.828-1.238,1.806-1.238,2.935v8.343
		c0,1.129,0.41,2.11,1.238,2.934c0.824,0.824,1.801,1.238,2.934,1.238h4.172c4.515,0,8.832-0.879,12.937-2.64
		c4.105-1.759,7.656-4.138,10.656-7.138c2.996-2.996,5.375-6.551,7.137-10.655c1.758-4.106,2.641-8.418,2.641-12.938V12.511
		c0-3.476-1.219-6.429-3.653-8.863C43.973,1.218,41.02,0,37.543,0"/>
	<path clip-path="url(#SVGID_2_)" fill="#C5862B" d="M104.805,3.648C102.375,1.218,99.418,0,95.941,0H70.914
		c-3.476,0-6.43,1.218-8.863,3.648c-2.434,2.434-3.648,5.391-3.648,8.867v25.028c0,3.476,1.215,6.429,3.648,8.863
		s5.388,3.648,8.863,3.648h14.602c1.738,0,3.215,0.609,4.43,1.825c1.219,1.218,1.828,2.694,1.828,4.433v2.086
		c0,4.606-1.633,8.54-4.891,11.797c-3.258,3.258-7.191,4.887-11.797,4.887h-4.172c-1.129,0-2.109,0.414-2.934,1.238
		c-0.824,0.828-1.238,1.805-1.238,2.935v8.343c0,1.129,0.414,2.109,1.238,2.934c0.824,0.825,1.805,1.238,2.934,1.238h4.172
		c4.52,0,8.832-0.879,12.938-2.64c4.105-1.759,7.656-4.138,10.656-7.138c3-2.996,5.379-6.551,7.137-10.655
		c1.762-4.105,2.641-8.419,2.641-12.938V12.511C108.457,9.035,107.243,6.082,104.805,3.648"/>
</g>
</svg>
