<?xml version="1.0" encoding="utf-8"?>
<!-- Generator: Adobe Illustrator 16.0.0, SVG Export Plug-In . SVG Version: 6.00 Build 0)  -->
<!DOCTYPE svg PUBLIC "-//W3C//DTD SVG 1.1//EN" "http://www.w3.org/Graphics/SVG/1.1/DTD/svg11.dtd">
<svg version="1.1" id="Layer_1" xmlns="http://www.w3.org/2000/svg" xmlns:xlink="http://www.w3.org/1999/xlink" x="0px" y="0px"
	 width="392.583px" height="373.84px" viewBox="0 0 392.583 373.84" enable-background="new 0 0 392.583 373.84"
	 xml:space="preserve">
<g>
	<defs>
		<rect id="SVGID_1_" width="392.583" height="373.84"/>
	</defs>
	<clipPath id="SVGID_2_">
		<use xlink:href="#SVGID_1_"  overflow="visible"/>
	</clipPath>
	<path clip-path="url(#SVGID_2_)" fill="#C6862B" d="M362.755,118.801l-95.762-6.879c-2-0.16-3.758-1.363-4.476-3.281L226.036,19.84
		C220.993,7.602,209.634,0,196.356,0c-13.281,0-24.563,7.602-29.679,19.922l-36.563,88.879c-0.801,1.84-2.48,3.121-4.48,3.277
		l-95.598,6.883c-12.961,0.719-24,9.199-28.242,21.68c-4.32,12.64-0.719,25.918,9.519,34.64l74,61.116
		c1.524,1.283,2.243,3.365,1.762,5.283L64.517,334c-2.641,9.602-0.801,19.52,5.039,27.281c6,7.84,15.359,12.559,25.199,12.559
		c6.082,0,12-1.84,16.879-5.121l80.883-50.321c1.679-1.039,3.839-1.039,5.519,0l81.68,50.161c5.121,3.441,11.039,5.281,17.039,5.281
		c9.199,0,18.32-4.399,24.238-11.84c6.16-7.68,8.402-17.68,6.16-27.68l-22.636-92.559c-0.481-2,0.237-4.082,1.757-5.365
		l75.121-61.275c10.078-8.641,13.68-21.922,9.441-34.562C386.677,128.078,375.556,119.52,362.755,118.801 M368.915,160
		l-74.961,61.199c-7.359,6-10.719,15.922-8.398,25.198l22.641,92.403c1.199,5.438-0.961,9.199-2.402,10.961
		c-2.238,2.797-5.598,4.559-8.957,4.559c-2.082,0-4.16-0.641-6.401-2.16l-82-50.398c-3.918-2.403-8.399-3.684-13.04-3.684
		c-4.641,0-9.2,1.28-13.122,3.762l-81.199,50.48c-5.199,3.441-12.16,1.918-15.84-2.88c-1.519-2-3.121-5.44-1.679-10.479
		l22.64-92.641c2.239-9.199-1.043-19.039-8.32-25.039l-73.84-61.043c-5.84-5.039-4.242-11.519-3.601-13.359
		c0.64-1.84,3.281-8,10.961-8.399l95.757-6.878c9.442-0.723,17.602-6.563,21.203-15.364l36.559-88.879
		c2.961-7.199,9.602-7.757,11.521-7.757c1.921,0,8.558,0.558,11.519,7.757l36.563,88.879c3.597,8.801,11.757,14.641,21.198,15.364
		l95.918,6.957c7.52,0.402,10.16,6.562,10.802,8.402C372.915,148.641,374.518,155.121,368.915,160"/>
</g>
</svg>
