<?xml version="1.0" encoding="utf-8"?>
<!-- Generator: Adobe Illustrator 16.0.0, SVG Export Plug-In . SVG Version: 6.00 Build 0)  -->
<!DOCTYPE svg PUBLIC "-//W3C//DTD SVG 1.1//EN" "http://www.w3.org/Graphics/SVG/1.1/DTD/svg11.dtd">
<svg version="1.1" id="Layer_1" xmlns="http://www.w3.org/2000/svg" xmlns:xlink="http://www.w3.org/1999/xlink" x="0px" y="0px"
	 width="499.16px" height="499.183px" viewBox="0 0 499.16 499.183" enable-background="new 0 0 499.16 499.183"
	 xml:space="preserve">
<g>
	<defs>
		<rect id="SVGID_1_" width="499.16" height="499.183"/>
	</defs>
	<clipPath id="SVGID_2_">
		<use xlink:href="#SVGID_1_"  overflow="visible"/>
	</clipPath>
	<path clip-path="url(#SVGID_2_)" fill="#C88500" d="M249.577,411.577c-4.31,0-8.123-2.747-9.486-6.836
		c-5.478-16.435-18.964-17.164-46.513-17.164c-19.332,0-36.231-13.36-40.796-32h-15.204c-5.514,0-10-4.486-10-10v-15.479
		c-14.208-4.318-24-17.383-24-32.299c0-12.678-5.755-29.826-14.32-42.676c-2.248-3.369-2.248-7.725,0-11.094
		c8.565-12.848,14.32-29.998,14.32-42.676c0-14.965,9.792-28.045,24-32.337v-15.44c0-5.514,4.486-10,10-10h15.204
		c4.565-18.64,21.464-32,40.796-32c23.681,0,41.271-6.906,47.055-18.473c1.595-3.19,5.023-5.172,8.944-5.172
		c3.924,0,7.351,1.982,8.945,5.172c5.784,11.567,23.374,18.473,47.055,18.473c19.332,0,36.231,13.36,40.797,32h15.203
		c5.515,0,10,4.486,10,10v15.479c14.209,4.317,24,17.382,24,32.298c0,12.678,5.756,29.828,14.32,42.676
		c2.248,3.369,2.248,7.725,0,11.095c-8.564,12.849-14.32,29.997-14.32,42.675c0,14.966-9.792,28.045-24,32.337v15.44
		c0,5.514-4.485,10-10,10h-15.203c-4.565,18.64-21.465,32-40.797,32c-27.549,0-41.033,0.729-46.513,17.164
		C257.699,408.83,253.888,411.577,249.577,411.577 M161.578,335.577c5.514,0,10,4.486,10,10c0,12.131,9.869,22,22,22
		c20.874,0,42.43-0.001,56,14.382c13.569-14.383,35.128-14.382,56-14.382c12.132,0,22-9.869,22-22c0-5.514,4.486-10,10-10h14v-14
		c0-5.514,4.486-10,10-10c7.721,0,14-6.181,14-13.777c0-14.585,5.438-32.956,14.238-48.223c-8.8-15.267-14.238-33.638-14.238-48.223
		c0-7.596-6.181-13.777-13.776-13.777c-5.541,0-10.224-4.58-10.224-10v-14h-14c-5.514,0-10-4.486-10-10c0-12.131-9.868-22-22-22
		c-24.106,0-43.886-6.242-56-17.62c-12.114,11.378-31.893,17.62-56,17.62c-12.131,0-22,9.869-22,22c0,5.514-4.486,10-10,10h-14v14
		c0,5.514-4.486,10-10,10c-7.72,0-14,6.181-14,13.777c0,14.585-5.438,32.956-14.239,48.223
		c8.801,15.267,14.239,33.638,14.239,48.223c0,7.597,6.181,13.777,13.777,13.777c5.541,0,10.223,4.579,10.223,10v14H161.578z"/>
	<path clip-path="url(#SVGID_2_)" fill="#C88500" d="M369.577,328.616c13.773-3.48,24-15.976,24-30.816
		c0-13.043,5.892-30.637,14.656-43.785c1.793-2.688,1.793-6.188,0-8.875c-8.765-13.148-14.656-30.742-14.656-43.785
		c0-14.793-10.159-27.254-24-30.781v-16.996c0-4.418-3.581-8-8-8h-16.805c-3.715-18.234-19.879-32-39.195-32
		c-24.456,0-42.715-7.32-48.844-19.578c-2.711-5.422-11.601-5.422-14.312,0c-6.129,12.258-24.387,19.578-48.844,19.578
		c-19.316,0-35.48,13.766-39.195,32h-16.805c-4.418,0-8,3.582-8,8v16.961c-13.773,3.48-24,15.976-24,30.816
		c0,13.043-5.891,30.637-14.656,43.785c-1.793,2.688-1.793,6.188,0,8.875c8.765,13.148,14.656,30.742,14.656,43.785
		c0,14.793,10.16,27.255,24,30.781v16.996c0,4.418,3.582,8,8,8h16.805c3.715,18.234,19.879,32,39.195,32
		c27.754,0,42.508,0.824,48.41,18.531c1.09,3.266,4.145,5.469,7.589,5.469c3.445,0,6.5-2.203,7.591-5.469
		c5.901-17.707,20.655-18.531,48.409-18.531c19.316,0,35.48-13.766,39.195-32h16.805c4.419,0,8-3.582,8-8V328.616z M361.577,313.577
		c-4.418,0-8,3.582-8,8v16h-16c-4.418,0-8,3.582-8,8c0,13.234-10.766,24-24,24c-21.288,0-43.159,0-56,15.396
		c-12.839-15.396-34.71-15.396-56-15.396c-13.234,0-24-10.766-24-24c0-4.418-3.582-8-8-8h-16v-16c0-4.418-3.805-8-8.223-8
		c-8.699,0-15.777-7.078-15.777-15.777c0-14.711-5.621-33.125-14.555-48.223c8.934-15.098,14.555-33.512,14.555-48.223
		c0-8.699,7.078-15.777,16-15.777c4.418,0,8-3.582,8-8v-16h16c4.418,0,8-3.582,8-8c0-13.234,10.766-24,24-24
		c24.809,0,44.473-6.59,56-18.422c11.527,11.832,31.191,18.422,56,18.422c13.234,0,24,10.766,24,24c0,4.418,3.582,8,8,8h16v16
		c0,4.418,3.806,8,8.224,8c8.699,0,15.776,7.078,15.776,15.777c0,14.711,5.621,33.125,14.556,48.223
		c-8.935,15.098-14.556,33.512-14.556,48.223C377.577,306.499,370.5,313.577,361.577,313.577"/>
	<rect x="239.578" y="47.577" clip-path="url(#SVGID_2_)" fill="#C88500" width="20" height="28"/>
	<rect x="241.578" y="49.577" clip-path="url(#SVGID_2_)" fill="#C88500" width="16" height="24"/>
	
		<rect x="440.942" y="23.553" transform="matrix(-0.7071 0.7071 -0.7071 -0.7071 818.4951 -271.9373)" clip-path="url(#SVGID_2_)" fill="#C88500" width="49.256" height="20.002"/>
	
		<rect x="442.941" y="25.554" transform="matrix(-0.7071 0.7071 -0.7071 -0.7071 818.502 -271.9267)" clip-path="url(#SVGID_2_)" fill="#C88500" width="45.256" height="16.001"/>
	<rect x="455.578" y="239.577" clip-path="url(#SVGID_2_)" fill="#C88500" width="36" height="20"/>
	<rect x="457.578" y="241.577" clip-path="url(#SVGID_2_)" fill="#C88500" width="32" height="16"/>
	<rect x="239.578" y="7.577" clip-path="url(#SVGID_2_)" fill="#C88500" width="20" height="28"/>
	<rect x="241.578" y="9.577" clip-path="url(#SVGID_2_)" fill="#C88500" width="16" height="24"/>
	<rect x="423.578" y="239.577" clip-path="url(#SVGID_2_)" fill="#C88500" width="20" height="20"/>
	<rect x="425.578" y="241.577" clip-path="url(#SVGID_2_)" fill="#C88500" width="16" height="16"/>
	
		<rect x="409.586" y="169.163" transform="matrix(-0.9238 0.3828 -0.3828 -0.9238 875.7968 184.0632)" clip-path="url(#SVGID_2_)" fill="#C88500" width="20.001" height="20"/>
	
		<rect x="411.586" y="171.163" transform="matrix(-0.9238 0.3828 -0.3828 -0.9238 875.796 184.0553)" clip-path="url(#SVGID_2_)" fill="#C88500" width="16" height="16"/>
	
		<rect x="389.971" y="81.175" transform="matrix(-0.7071 0.7071 -0.7071 -0.7071 760.9118 -132.846)" clip-path="url(#SVGID_2_)" fill="#C88500" width="35.999" height="20.001"/>
	
		<rect x="391.971" y="83.176" transform="matrix(-0.7071 0.7071 -0.7071 -0.7071 760.9196 -132.8321)" clip-path="url(#SVGID_2_)" fill="#C88500" width="31.999" height="15.999"/>
	
		<rect x="369.681" y="109.494" transform="matrix(-0.7071 0.7071 -0.7071 -0.7071 732.6418 -64.5041)" clip-path="url(#SVGID_2_)" fill="#C88500" width="20" height="20"/>
	
		<rect x="371.682" y="111.494" transform="matrix(-0.7071 0.7072 -0.7072 -0.7071 732.6403 -64.5091)" clip-path="url(#SVGID_2_)" fill="#C88500" width="15.999" height="16.001"/>
	
		<rect x="309.998" y="69.588" transform="matrix(-0.3828 0.9238 -0.9238 -0.3828 516.0087 -185.5772)" clip-path="url(#SVGID_2_)" fill="#C88500" width="20" height="20.001"/>
	
		<rect x="311.997" y="71.589" transform="matrix(-0.3828 0.9238 -0.9238 -0.3828 516.0249 -185.5634)" clip-path="url(#SVGID_2_)" fill="#C88500" width="16" height="16"/>
	
		<rect x="437.616" y="149.257" transform="matrix(-0.9238 0.3828 -0.3828 -0.9238 960.5787 127.3727)" clip-path="url(#SVGID_2_)" fill="#C88500" width="60.001" height="20"/>
	
		<rect x="439.617" y="151.257" transform="matrix(-0.9238 0.3828 -0.3828 -0.9238 960.5789 127.3744)" clip-path="url(#SVGID_2_)" fill="#C88500" width="55.999" height="16"/>
	
		<rect x="309.888" y="21.546" transform="matrix(-0.3828 0.9238 -0.9238 -0.3828 499.1488 -270.3738)" clip-path="url(#SVGID_2_)" fill="#C88500" width="60.001" height="20"/>
	
		<rect x="311.889" y="23.546" transform="matrix(-0.3828 0.9238 -0.9238 -0.3828 499.1469 -270.3757)" clip-path="url(#SVGID_2_)" fill="#C88500" width="56" height="16.001"/>
	
		<rect x="23.581" y="8.951" transform="matrix(-0.7071 0.7071 -0.7071 -0.7071 81.071 33.5796)" clip-path="url(#SVGID_2_)" fill="#C88500" width="20.001" height="49.256"/>
	
		<rect x="25.581" y="10.952" transform="matrix(-0.7071 0.7071 -0.7071 -0.7071 81.071 33.58)" clip-path="url(#SVGID_2_)" fill="#C88500" width="16" height="45.256"/>
	<rect x="7.578" y="239.577" clip-path="url(#SVGID_2_)" fill="#C88500" width="36" height="20"/>
	<rect x="9.578" y="241.577" clip-path="url(#SVGID_2_)" fill="#C88500" width="32" height="16"/>
	<rect x="55.578" y="239.577" clip-path="url(#SVGID_2_)" fill="#C88500" width="20" height="20"/>
	<rect x="57.578" y="241.577" clip-path="url(#SVGID_2_)" fill="#C88500" width="16" height="16"/>
	
		<rect x="69.596" y="169.152" transform="matrix(-0.3827 0.9239 -0.9239 -0.3827 275.5709 174.1859)" clip-path="url(#SVGID_2_)" fill="#C88500" width="20" height="20"/>
	
		<rect x="71.596" y="171.152" transform="matrix(-0.3827 0.9239 -0.9239 -0.3827 275.5717 174.1872)" clip-path="url(#SVGID_2_)" fill="#C88500" width="16" height="16.001"/>
	
		<rect x="81.216" y="73.184" transform="matrix(-0.7071 0.7071 -0.7071 -0.7071 220.1943 91.1612)" clip-path="url(#SVGID_2_)" fill="#C88500" width="20.001" height="36"/>
	
		<rect x="83.216" y="75.185" transform="matrix(-0.7071 0.7071 -0.7071 -0.7071 220.1935 91.1615)" clip-path="url(#SVGID_2_)" fill="#C88500" width="16" height="31.999"/>
	
		<rect x="109.472" y="109.467" transform="matrix(-0.7071 0.7071 -0.7071 -0.7071 288.4283 119.4685)" clip-path="url(#SVGID_2_)" fill="#C88500" width="20.001" height="20"/>
	
		<rect x="111.472" y="111.467" transform="matrix(-0.7071 0.7071 -0.7071 -0.7071 288.4275 119.4703)" clip-path="url(#SVGID_2_)" fill="#C88500" width="16" height="15.999"/>
	
		<rect x="169.181" y="69.576" transform="matrix(-0.9238 0.3828 -0.3828 -0.9238 375.176 84.4995)" clip-path="url(#SVGID_2_)" fill="#C88500" width="20" height="20"/>
	
		<rect x="171.181" y="71.576" transform="matrix(-0.9238 0.3828 -0.3828 -0.9238 375.1757 84.4959)" clip-path="url(#SVGID_2_)" fill="#C88500" width="16" height="16.001"/>
	
		<rect x="21.543" y="129.266" transform="matrix(-0.3827 0.9239 -0.9239 -0.3827 190.7572 191.0716)" clip-path="url(#SVGID_2_)" fill="#C88500" width="20" height="60.001"/>
	
		<rect x="23.543" y="131.266" transform="matrix(-0.3827 0.9239 -0.9239 -0.3827 190.7563 191.0745)" clip-path="url(#SVGID_2_)" fill="#C88500" width="16" height="56"/>
	
		<rect x="149.263" y="1.543" transform="matrix(-0.9239 0.3827 -0.3827 -0.9239 318.4748 -0.2618)" clip-path="url(#SVGID_2_)" fill="#C88500" width="20" height="60"/>
	
		<rect x="151.263" y="3.543" transform="matrix(-0.9239 0.3827 -0.3827 -0.9239 318.4738 -0.2643)" clip-path="url(#SVGID_2_)" fill="#C88500" width="16" height="56"/>
	<rect x="239.578" y="423.577" clip-path="url(#SVGID_2_)" fill="#C88500" width="20" height="28"/>
	<rect x="241.578" y="425.577" clip-path="url(#SVGID_2_)" fill="#C88500" width="16" height="24"/>
	
		<rect x="455.57" y="440.94" transform="matrix(-0.7071 0.7071 -0.7071 -0.7071 1123.9824 465.566)" clip-path="url(#SVGID_2_)" fill="#C88500" width="19.999" height="49.255"/>
	
		<rect x="457.569" y="442.94" transform="matrix(-0.7071 0.7071 -0.7071 -0.7071 1123.9807 465.5667)" clip-path="url(#SVGID_2_)" fill="#C88500" width="16" height="45.256"/>
	<rect x="239.578" y="463.577" clip-path="url(#SVGID_2_)" fill="#C88500" width="20" height="28"/>
	<rect x="241.578" y="465.577" clip-path="url(#SVGID_2_)" fill="#C88500" width="16" height="24"/>
	
		<rect x="409.576" y="309.981" transform="matrix(-0.3827 0.9239 -0.9239 -0.3827 875.7776 54.8179)" clip-path="url(#SVGID_2_)" fill="#C88500" width="19.999" height="20.001"/>
	
		<rect x="411.576" y="311.982" transform="matrix(-0.3827 0.9239 -0.9239 -0.3827 875.7709 54.8081)" clip-path="url(#SVGID_2_)" fill="#C88500" width="15.999" height="16"/>
	
		<rect x="397.972" y="389.969" transform="matrix(-0.7071 0.7071 -0.7071 -0.7071 984.9287 407.9467)" clip-path="url(#SVGID_2_)" fill="#C88500" width="20" height="36"/>
	
		<rect x="399.971" y="391.968" transform="matrix(-0.7071 0.7071 -0.7071 -0.7071 984.927 407.9425)" clip-path="url(#SVGID_2_)" fill="#C88500" width="16" height="32.001"/>
	
		<rect x="369.652" y="369.657" transform="matrix(-0.7071 0.7071 -0.7071 -0.7071 916.5641 379.6602)" clip-path="url(#SVGID_2_)" fill="#C88500" width="19.999" height="19.999"/>
	
		<rect x="371.653" y="371.657" transform="matrix(-0.7071 0.7071 -0.7071 -0.7071 916.5649 379.6367)" clip-path="url(#SVGID_2_)" fill="#C88500" width="15.999" height="16"/>
	
		<rect x="310" y="409.581" transform="matrix(-0.9238 0.3828 -0.3828 -0.9238 776.2448 684.7004)" clip-path="url(#SVGID_2_)" fill="#C88500" width="20" height="20"/>
	
		<rect x="312" y="411.581" transform="matrix(-0.9238 0.3828 -0.3828 -0.9238 776.25 684.6899)" clip-path="url(#SVGID_2_)" fill="#C88500" width="15.999" height="16"/>
	
		<rect x="457.595" y="309.948" transform="matrix(-0.3827 0.9239 -0.9239 -0.3827 960.616 38.0533)" clip-path="url(#SVGID_2_)" fill="#C88500" width="20" height="60"/>
	
		<rect x="459.595" y="311.948" transform="matrix(-0.3827 0.9239 -0.9239 -0.3827 960.6078 38.0399)" clip-path="url(#SVGID_2_)" fill="#C88500" width="16" height="56"/>
	
		<rect x="329.897" y="437.64" transform="matrix(-0.9239 0.3827 -0.3827 -0.9239 832.8831 769.6036)" clip-path="url(#SVGID_2_)" fill="#C88500" width="20.001" height="60"/>
	
		<rect x="331.898" y="439.639" transform="matrix(-0.9239 0.3827 -0.3827 -0.9239 832.8815 769.6077)" clip-path="url(#SVGID_2_)" fill="#C88500" width="16" height="56.001"/>
	
		<rect x="8.993" y="455.573" transform="matrix(-0.7071 0.7071 -0.7071 -0.7071 386.6001 771.0146)" clip-path="url(#SVGID_2_)" fill="#C88500" width="49.256" height="20"/>
	
		<rect x="10.993" y="457.573" transform="matrix(-0.7071 0.7071 -0.7071 -0.7071 386.6044 771.0097)" clip-path="url(#SVGID_2_)" fill="#C88500" width="45.256" height="16.001"/>
	
		<rect x="69.59" y="309.997" transform="matrix(-0.9238 0.3828 -0.3828 -0.9238 275.613 585.1518)" clip-path="url(#SVGID_2_)" fill="#C88500" width="20" height="20"/>
	
		<rect x="71.59" y="311.997" transform="matrix(-0.9238 0.3828 -0.3828 -0.9238 275.6181 585.1478)" clip-path="url(#SVGID_2_)" fill="#C88500" width="16" height="16"/>
	
		<rect x="73.218" y="397.97" transform="matrix(-0.7071 0.7071 -0.7071 -0.7071 444.1931 631.9546)" clip-path="url(#SVGID_2_)" fill="#C88500" width="36" height="20"/>
	
		<rect x="75.218" y="399.97" transform="matrix(-0.7071 0.7071 -0.7071 -0.7071 444.1974 631.9479)" clip-path="url(#SVGID_2_)" fill="#C88500" width="31.999" height="16.001"/>
	
		<rect x="109.452" y="369.641" transform="matrix(-0.7071 0.7071 -0.7071 -0.7071 472.3604 563.6289)" clip-path="url(#SVGID_2_)" fill="#C88500" width="20" height="20"/>
	
		<rect x="111.452" y="371.641" transform="matrix(-0.7071 0.7071 -0.7071 -0.7071 472.3667 563.6155)" clip-path="url(#SVGID_2_)" fill="#C88500" width="15.999" height="16"/>
	
		<rect x="169.179" y="409.591" transform="matrix(-0.3828 0.9238 -0.9238 -0.3828 635.3998 414.6755)" clip-path="url(#SVGID_2_)" fill="#C88500" width="20" height="20"/>
	
		<rect x="171.179" y="411.591" transform="matrix(-0.3828 0.9238 -0.9238 -0.3828 635.4 414.6858)" clip-path="url(#SVGID_2_)" fill="#C88500" width="16" height="16"/>
	
		<rect x="1.548" y="329.895" transform="matrix(-0.9238 0.3828 -0.3828 -0.9238 190.8084 641.8224)" clip-path="url(#SVGID_2_)" fill="#C88500" width="60.001" height="20"/>
	
		<rect x="3.548" y="331.895" transform="matrix(-0.9238 0.3828 -0.3828 -0.9238 190.8099 641.8215)" clip-path="url(#SVGID_2_)" fill="#C88500" width="56" height="16"/>
	
		<rect x="129.236" y="457.593" transform="matrix(-0.3828 0.9238 -0.9238 -0.3828 652.1689 499.4796)" clip-path="url(#SVGID_2_)" fill="#C88500" width="60" height="20"/>
	
		<rect x="131.236" y="459.593" transform="matrix(-0.3828 0.9238 -0.9238 -0.3828 652.1688 499.483)" clip-path="url(#SVGID_2_)" fill="#C88500" width="56" height="16"/>
	<path clip-path="url(#SVGID_2_)" fill="#C88500" d="M249.578,341.94c-3.963,0-7.556-2.343-9.151-5.968l-17.635-39.999
		l-43.467,4.729c-0.359,0.041-0.728,0.062-1.095,0.062c-3.547,0-6.859-1.916-8.645-5.002c-1.978-3.434-1.746-7.714,0.59-10.908
		l25.827-35.276l-25.827-35.275c-2.336-3.195-2.568-7.476-0.592-10.907c1.785-3.084,5.12-4.997,8.706-4.997
		c0.34,0,0.683,0.017,1.025,0.053l43.478,4.729l17.636-40c1.595-3.624,5.187-5.966,9.15-5.966c3.964,0,7.556,2.342,9.15,5.967
		l17.635,39.999l43.468-4.728c0.357-0.037,0.701-0.054,1.044-0.054c3.585,0,6.917,1.914,8.695,4.995
		c1.979,3.433,1.746,7.714-0.59,10.908l-25.827,35.276l25.826,35.275c2.337,3.195,2.57,7.476,0.593,10.906
		c-1.782,3.088-5.094,5.005-8.639,5.005c-0.368,0-0.74-0.021-1.112-0.063l-43.458-4.728l-17.636,40
		C257.134,339.597,253.542,341.94,249.578,341.94 M228.992,275.241c3.959,0,7.55,2.342,9.146,5.967l11.44,25.946l11.438-25.946
		c1.604-3.626,5.192-5.969,9.146-5.969c0.36,0,0.726,0.021,1.091,0.062l28.19,3.067l-16.753-22.883
		c-2.584-3.534-2.584-8.282-0.001-11.815l16.754-22.884l-28.195,3.068c-0.357,0.038-0.706,0.056-1.055,0.056
		c-3.975,0-7.578-2.34-9.177-5.963l-11.438-25.948l-11.44,25.947c-1.602,3.623-5.212,5.962-9.198,5.962
		c-0.338,0-0.679-0.018-1.02-0.052l-28.208-3.07l16.753,22.883c2.584,3.534,2.584,8.282,0.001,11.815l-16.754,22.884l28.197-3.068
		C228.271,275.26,228.631,275.241,228.992,275.241"/>
	<path clip-path="url(#SVGID_2_)" fill="#C88500" d="M327.839,204.393c-1.586-2.746-4.644-4.273-7.793-3.953l-44.922,4.887
		l-18.226-41.34c-1.278-2.903-4.149-4.774-7.321-4.774c-3.171,0-6.043,1.871-7.32,4.774l-18.226,41.34l-44.922-4.887
		c-3.114-0.32-6.203,1.207-7.793,3.953c-1.582,2.746-1.399,6.168,0.472,8.727l26.692,36.457l-26.692,36.457
		c-1.871,2.559-2.054,5.98-0.472,8.727c1.59,2.746,4.679,4.309,7.793,3.953l44.922-4.887l18.226,41.34
		c1.277,2.902,4.149,4.773,7.32,4.773c3.172,0,6.043-1.871,7.321-4.773l18.226-41.34l44.922,4.887
		c3.149,0.355,6.207-1.207,7.793-3.953c1.582-2.746,1.399-6.168-0.472-8.727l-26.692-36.457l26.692-36.457
		C329.238,210.561,329.421,207.139,327.839,204.393 M284.305,244.85c-2.06,2.816-2.06,6.637,0,9.453l19.434,26.543l-32.707-3.558
		c-3.43-0.384-6.774,1.534-8.184,4.726l-13.271,30.098l-13.269-30.098c-1.289-2.926-4.176-4.773-7.317-4.773
		c-0.289,0-0.578,0.016-0.867,0.048l-32.707,3.558l19.434-26.543c2.058-2.816,2.058-6.637,0-9.453l-19.434-26.543l32.707,3.559
		c3.418,0.351,6.774-1.539,8.184-4.727l13.269-30.098l13.271,30.098c1.409,3.195,4.766,5.09,8.184,4.727l32.707-3.559
		L284.305,244.85z"/>
</g>
</svg>
