<?xml version="1.0" encoding="utf-8"?>
<!-- Generator: Adobe Illustrator 16.0.0, SVG Export Plug-In . SVG Version: 6.00 Build 0)  -->
<!DOCTYPE svg PUBLIC "-//W3C//DTD SVG 1.1//EN" "http://www.w3.org/Graphics/SVG/1.1/DTD/svg11.dtd">
<svg version="1.1" id="Layer_1" xmlns="http://www.w3.org/2000/svg" xmlns:xlink="http://www.w3.org/1999/xlink" x="0px" y="0px"
	 width="512px" height="512px" viewBox="0 0 512 512" enable-background="new 0 0 512 512" xml:space="preserve">
<g>
	<defs>
		<rect id="SVGID_1_" width="512" height="512"/>
	</defs>
	<clipPath id="SVGID_2_">
		<use xlink:href="#SVGID_1_"  overflow="visible"/>
	</clipPath>
	<path clip-path="url(#SVGID_2_)" fill="#C88500" d="M501.333,512H10.666C4.779,512,0,507.222,0,501.333
		c0-5.888,4.779-10.666,10.666-10.666h490.667c5.889,0,10.667,4.778,10.667,10.666C512,507.222,507.222,512,501.333,512"/>
	<path clip-path="url(#SVGID_2_)" fill="#C88500" d="M96,512H32c-5.888,0-10.667-4.778-10.667-10.667v-128
		c0-5.888,4.779-10.666,10.667-10.666h64c5.888,0,10.667,4.778,10.667,10.666v128C106.667,507.222,101.888,512,96,512
		 M42.667,490.667h42.667V384H42.667V490.667z"/>
	<path clip-path="url(#SVGID_2_)" fill="#C88500" d="M224,512h-64c-5.888,0-10.667-4.778-10.667-10.667V266.667
		c0-5.889,4.779-10.667,10.667-10.667h64c5.888,0,10.667,4.778,10.667,10.667v234.666C234.667,507.222,229.888,512,224,512
		 M170.667,490.667h42.667V277.333h-42.667V490.667z"/>
	<path clip-path="url(#SVGID_2_)" fill="#C88500" d="M352,512h-64c-5.888,0-10.667-4.778-10.667-10.667v-192
		c0-5.888,4.779-10.666,10.667-10.666h64c5.888,0,10.667,4.778,10.667,10.666v192C362.667,507.222,357.888,512,352,512
		 M298.667,490.667h42.666V320h-42.666V490.667z"/>
	<path clip-path="url(#SVGID_2_)" fill="#C88500" d="M480,512h-64c-5.888,0-10.667-4.778-10.667-10.667v-320
		c0-5.888,4.779-10.666,10.667-10.666h64c5.888,0,10.667,4.778,10.667,10.666v320C490.667,507.222,485.888,512,480,512
		 M426.667,490.667h42.666V192h-42.666V490.667z"/>
	<path clip-path="url(#SVGID_2_)" fill="#C88500" d="M64,277.332c-23.531,0-42.667-19.135-42.667-42.666
		C21.333,211.137,40.469,192,64,192s42.667,19.136,42.667,42.666C106.667,258.197,87.531,277.332,64,277.332 M64,213.333
		c-11.776,0-21.333,9.579-21.333,21.333C42.667,246.421,52.224,256,64,256s21.333-9.579,21.333-21.334
		C85.333,222.913,75.776,213.333,64,213.333"/>
	<path clip-path="url(#SVGID_2_)" fill="#C88500" d="M192,170.667c-23.531,0-42.667-19.136-42.667-42.667
		c0-23.53,19.136-42.666,42.667-42.666c23.531,0,42.667,19.136,42.667,42.666C234.667,151.53,215.531,170.667,192,170.667
		 M192,106.667c-11.776,0-21.333,9.579-21.333,21.333c0,11.755,9.557,21.334,21.333,21.334s21.333-9.579,21.333-21.334
		C213.333,116.246,203.776,106.667,192,106.667"/>
	<path clip-path="url(#SVGID_2_)" fill="#C88500" d="M320,213.333c-23.53,0-42.667-19.136-42.667-42.667
		C277.333,147.137,296.47,128,320,128s42.667,19.136,42.667,42.666C362.667,194.197,343.53,213.333,320,213.333 M320,149.333
		c-11.776,0-21.333,9.579-21.333,21.333c0,11.755,9.557,21.334,21.333,21.334s21.333-9.579,21.333-21.334
		C341.333,158.913,331.776,149.333,320,149.333"/>
	<path clip-path="url(#SVGID_2_)" fill="#C88500" d="M448,85.333c-23.53,0-42.667-19.136-42.667-42.667
		C405.333,19.137,424.47,0,448,0s42.667,19.136,42.667,42.666C490.667,66.197,471.53,85.333,448,85.333 M448,21.333
		c-11.776,0-21.333,9.579-21.333,21.333C426.667,54.421,436.224,64,448,64s21.333-9.579,21.333-21.334
		C469.333,30.913,459.776,21.333,448,21.333"/>
	<path clip-path="url(#SVGID_2_)" fill="#C88500" d="M342.635,158.699c-2.73,0-5.461-1.045-7.552-3.115
		c-4.16-4.16-4.16-10.923,0-15.082l82.773-82.774c4.159-4.16,10.922-4.16,15.082,0c4.16,4.16,4.16,10.923,0,15.083l-82.773,82.773
		C348.074,157.675,345.344,158.699,342.635,158.699"/>
	<path clip-path="url(#SVGID_2_)" fill="#C88500" d="M291.285,166.976c-0.96,0-1.941-0.128-2.923-0.405l-68.522-19.542
		c-5.654-1.621-8.939-7.509-7.318-13.184c1.6-5.674,7.425-9.002,13.163-7.338l68.523,19.541c5.675,1.621,8.96,7.531,7.339,13.184
		C300.203,163.925,295.936,166.976,291.285,166.976"/>
	<path clip-path="url(#SVGID_2_)" fill="#C88500" d="M86.613,222.72c-3.115,0-6.229-1.366-8.341-4.011
		c-3.691-4.608-2.923-11.306,1.685-14.997l80.427-64.128c4.608-3.648,11.306-2.902,14.976,1.706
		c3.691,4.608,2.922,11.307-1.685,14.998l-80.427,64.128C91.285,221.952,88.938,222.72,86.613,222.72"/>
</g>
</svg>
