<?xml version="1.0" encoding="utf-8"?>
<!-- Generator: Adobe Illustrator 16.0.0, SVG Export Plug-In . SVG Version: 6.00 Build 0)  -->
<!DOCTYPE svg PUBLIC "-//W3C//DTD SVG 1.1//EN" "http://www.w3.org/Graphics/SVG/1.1/DTD/svg11.dtd">
<svg version="1.1" id="Layer_1" xmlns="http://www.w3.org/2000/svg" xmlns:xlink="http://www.w3.org/1999/xlink" x="0px" y="0px"
	 width="164.373px" height="88.063px" viewBox="0 0 164.373 88.063" enable-background="new 0 0 164.373 88.063"
	 xml:space="preserve">
<g>
	<defs>
		<rect id="SVGID_1_" width="164.373" height="133.813"/>
	</defs>
	<clipPath id="SVGID_2_">
		<use xlink:href="#SVGID_1_"  overflow="visible"/>
	</clipPath>
	<g clip-path="url(#SVGID_2_)">
		<path d="M11.486,81.44c0.526,0.649,0.789,1.411,0.789,2.285c0,1.216-0.407,2.176-1.219,2.879
			c-0.813,0.704-1.992,1.056-3.535,1.056H1.312V73.192h6.086c1.462,0,2.585,0.321,3.371,0.963c0.786,0.643,1.178,1.544,1.178,2.705
			c0,0.901-0.235,1.64-0.707,2.213c-0.471,0.574-1.089,0.95-1.854,1.127C10.26,80.377,10.96,80.792,11.486,81.44z M4.201,79.257
			h2.603c0.724,0,1.274-0.16,1.65-0.481c0.375-0.321,0.563-0.782,0.563-1.383c0-0.602-0.185-1.066-0.553-1.394
			c-0.369-0.328-0.936-0.492-1.701-0.492H4.201V79.257z M8.709,84.801c0.41-0.335,0.615-0.823,0.615-1.466
			c0-0.642-0.208-1.137-0.625-1.485c-0.417-0.349-1.008-0.522-1.772-0.522H4.201v3.976h2.746C7.712,85.303,8.3,85.136,8.709,84.801z
			"/>
		<path d="M25.289,82.537h-8.32c0.041,1.011,0.314,1.756,0.82,2.233c0.505,0.479,1.134,0.718,1.885,0.718
			c0.669,0,1.226-0.164,1.67-0.492s0.728-0.771,0.851-1.332h3.054c-0.151,0.792-0.472,1.503-0.963,2.131
			c-0.492,0.629-1.124,1.121-1.896,1.476c-0.772,0.355-1.629,0.533-2.572,0.533c-1.107,0-2.09-0.235-2.951-0.707
			s-1.53-1.145-2.008-2.019c-0.479-0.874-0.717-1.906-0.717-3.095s0.239-2.224,0.717-3.104c0.478-0.881,1.147-1.554,2.008-2.019
			c0.861-0.464,1.844-0.697,2.951-0.697c1.12,0,2.1,0.233,2.94,0.697c0.84,0.465,1.489,1.104,1.947,1.916
			c0.458,0.813,0.687,1.738,0.687,2.776C25.391,81.839,25.356,82.167,25.289,82.537z M21.753,79.155
			c-0.526-0.478-1.172-0.717-1.937-0.717c-0.779,0-1.435,0.239-1.968,0.717c-0.533,0.479-0.827,1.182-0.881,2.111h5.513
			C22.522,80.336,22.279,79.633,21.753,79.155z"/>
		<path d="M41.539,84.75h-5.799l-1.025,2.91h-3.053l5.328-14.304h3.299l5.308,14.304h-3.053L41.539,84.75z M40.76,82.557
			l-2.131-6.107l-2.131,6.107H40.76z"/>
		<path d="M65.28,77.423c0.799,0.854,1.199,2.066,1.199,3.638v6.599h-2.869v-6.271c0-0.875-0.222-1.548-0.666-2.019
			c-0.444-0.472-1.055-0.707-1.834-0.707c-0.806,0-1.448,0.253-1.926,0.758c-0.479,0.506-0.717,1.243-0.717,2.213v6.025h-2.869
			v-6.271c0-0.875-0.222-1.548-0.666-2.019c-0.444-0.472-1.055-0.707-1.834-0.707c-0.806,0-1.448,0.253-1.926,0.758
			c-0.479,0.506-0.717,1.243-0.717,2.213v6.025h-2.89V76.306h2.89v2.152c0.3-0.738,0.775-1.309,1.424-1.711
			c0.648-0.403,1.404-0.605,2.264-0.605c0.916,0,1.711,0.219,2.388,0.656s1.185,1.065,1.527,1.886
			c0.355-0.779,0.884-1.397,1.588-1.855c0.704-0.457,1.493-0.687,2.367-0.687C63.391,76.142,64.48,76.57,65.28,77.423z"/>
		<path d="M87.146,77.423c0.799,0.854,1.198,2.066,1.198,3.638v6.599h-2.869v-6.271c0-0.875-0.222-1.548-0.666-2.019
			c-0.444-0.472-1.055-0.707-1.834-0.707c-0.807,0-1.448,0.253-1.926,0.758c-0.479,0.506-0.717,1.243-0.717,2.213v6.025h-2.869
			v-6.271c0-0.875-0.222-1.548-0.666-2.019c-0.444-0.472-1.055-0.707-1.834-0.707c-0.806,0-1.448,0.253-1.926,0.758
			c-0.479,0.506-0.717,1.243-0.717,2.213v6.025h-2.89V76.306h2.89v2.152c0.3-0.738,0.775-1.309,1.424-1.711
			c0.648-0.403,1.404-0.605,2.264-0.605c0.916,0,1.711,0.219,2.388,0.656s1.185,1.065,1.527,1.886
			c0.355-0.779,0.884-1.397,1.588-1.855c0.704-0.457,1.493-0.687,2.367-0.687C85.257,76.142,86.347,76.57,87.146,77.423z"/>
		<path d="M98.182,76.839c0.683,0.451,1.168,1.059,1.455,1.824v-2.357h2.869V87.66h-2.869v-2.377
			c-0.287,0.765-0.772,1.376-1.455,1.834c-0.684,0.458-1.503,0.687-2.459,0.687c-0.957,0-1.817-0.232-2.582-0.697
			c-0.766-0.464-1.363-1.137-1.794-2.019c-0.43-0.881-0.646-1.916-0.646-3.104s0.216-2.224,0.646-3.104
			c0.431-0.881,1.028-1.554,1.794-2.019c0.765-0.464,1.625-0.697,2.582-0.697C96.679,76.163,97.498,76.388,98.182,76.839z
			 M94.452,79.565c-0.547,0.588-0.82,1.394-0.82,2.418s0.273,1.827,0.82,2.408c0.546,0.581,1.271,0.871,2.172,0.871
			c0.874,0,1.595-0.298,2.162-0.892c0.566-0.595,0.851-1.39,0.851-2.388c0-1.011-0.284-1.813-0.851-2.408
			c-0.567-0.594-1.288-0.891-2.162-0.891C95.723,78.684,94.998,78.978,94.452,79.565z"/>
		<path d="M107.874,85.242h5.574v2.418h-8.729v-2.295l5.226-6.66h-5.103v-2.398h8.401v2.275L107.874,85.242z"/>
		<path d="M117.978,85.242h5.574v2.418h-8.729v-2.295l5.226-6.66h-5.103v-2.398h8.401v2.275L117.978,85.242z"/>
		<path d="M136.318,82.537h-8.32c0.041,1.011,0.314,1.756,0.82,2.233c0.505,0.479,1.134,0.718,1.885,0.718
			c0.67,0,1.227-0.164,1.671-0.492c0.443-0.328,0.728-0.771,0.851-1.332h3.053c-0.15,0.792-0.471,1.503-0.963,2.131
			c-0.492,0.629-1.124,1.121-1.896,1.476c-0.772,0.355-1.629,0.533-2.572,0.533c-1.106,0-2.09-0.235-2.951-0.707
			c-0.86-0.472-1.53-1.145-2.008-2.019c-0.479-0.874-0.718-1.906-0.718-3.095s0.239-2.224,0.718-3.104
			c0.478-0.881,1.147-1.554,2.008-2.019c0.861-0.464,1.845-0.697,2.951-0.697c1.12,0,2.101,0.233,2.941,0.697
			c0.84,0.465,1.488,1.104,1.946,1.916c0.458,0.813,0.687,1.738,0.687,2.776C136.421,81.839,136.387,82.167,136.318,82.537z
			 M132.783,79.155c-0.525-0.478-1.171-0.717-1.937-0.717c-0.778,0-1.435,0.239-1.967,0.717c-0.533,0.479-0.827,1.182-0.882,2.111
			h5.513C133.552,80.336,133.31,79.633,132.783,79.155z"/>
		<path d="M145.775,76.839c0.677,0.451,1.165,1.059,1.466,1.824v-6.169h2.869V87.66h-2.869v-2.377
			c-0.301,0.765-0.789,1.376-1.466,1.834c-0.676,0.458-1.492,0.687-2.448,0.687c-0.957,0-1.817-0.232-2.582-0.697
			c-0.766-0.464-1.363-1.137-1.794-2.019c-0.43-0.881-0.646-1.916-0.646-3.104s0.216-2.224,0.646-3.104
			c0.431-0.881,1.028-1.554,1.794-2.019c0.765-0.464,1.625-0.697,2.582-0.697C144.283,76.163,145.1,76.388,145.775,76.839z
			 M142.057,79.565c-0.547,0.588-0.82,1.394-0.82,2.418s0.273,1.827,0.82,2.408c0.546,0.581,1.271,0.871,2.172,0.871
			c0.874,0,1.595-0.298,2.162-0.892c0.566-0.595,0.851-1.39,0.851-2.388c0-1.011-0.284-1.813-0.851-2.408
			c-0.567-0.594-1.288-0.891-2.162-0.891C143.327,78.684,142.603,78.978,142.057,79.565z"/>
		<path d="M157.14,72.597l-0.369,10.247h-2.438l-0.369-10.247H157.14z M157.119,84.647v3.013h-3.115v-3.013H157.119z"/>
	</g>
	<g clip-path="url(#SVGID_2_)">
		<path fill="#58595B" d="M9.953,34.93H4.072l-1.066,3.02H0.599L5.73,24.234h2.585l5.111,13.715h-2.408L9.953,34.93z M9.321,33.194
			l-2.309-6.512l-2.309,6.512H9.321z"/>
		<path fill="#58595B" d="M24.615,28.122c0.763,0.816,1.145,1.98,1.145,3.493v6.334h-2.25v-6.098c0-0.974-0.25-1.727-0.75-2.26
			c-0.5-0.533-1.184-0.799-2.053-0.799c-0.895,0-1.611,0.286-2.151,0.858s-0.809,1.411-0.809,2.516v5.782h-2.25V27.076h2.25v2.388
			c0.289-0.815,0.776-1.447,1.46-1.895c0.684-0.447,1.473-0.671,2.368-0.671C22.839,26.898,23.852,27.307,24.615,28.122z"/>
		<path fill="#58595B" d="M30.042,27.076l3.256,7.992l3.02-7.992h2.506L32.252,43.12h-2.506l2.349-5.427l-4.579-10.617H30.042z"/>
		<path fill="#58595B" d="M46.165,35.996v1.954h-1.381c-1.158,0-2.036-0.279-2.635-0.839c-0.599-0.559-0.898-1.49-0.898-2.792V28.99
			h-1.559v-1.914h1.559v-2.704h2.27v2.704h2.625v1.914H43.52v5.368c0,0.619,0.115,1.046,0.345,1.283s0.635,0.355,1.214,0.355H46.165
			z"/>
		<path fill="#58595B" d="M48.75,22.972c0.263-0.25,0.612-0.375,1.046-0.375s0.786,0.125,1.056,0.375
			c0.269,0.25,0.404,0.565,0.404,0.947c0,0.381-0.135,0.69-0.404,0.927c-0.27,0.237-0.622,0.355-1.056,0.355
			s-0.783-0.119-1.046-0.355s-0.395-0.546-0.395-0.927C48.355,23.537,48.486,23.222,48.75,22.972z M50.92,27.076V37.95h-2.25V27.076
			H50.92z"/>
		<path fill="#58595B" d="M70.704,28.122c0.77,0.816,1.154,1.98,1.154,3.493v6.334h-2.25v-6.098c0-0.947-0.237-1.681-0.71-2.201
			c-0.474-0.52-1.125-0.779-1.954-0.779c-0.882,0-1.582,0.28-2.102,0.839c-0.52,0.559-0.78,1.378-0.78,2.457v5.782h-2.25v-6.098
			c0-0.947-0.237-1.681-0.71-2.201c-0.474-0.52-1.125-0.779-1.954-0.779c-0.882,0-1.583,0.28-2.102,0.839s-0.779,1.378-0.779,2.457
			v5.782h-2.25V27.076h2.25v2.27c0.276-0.79,0.737-1.395,1.381-1.815s1.401-0.632,2.27-0.632c0.908,0,1.694,0.224,2.358,0.671
			c0.664,0.448,1.147,1.092,1.45,1.934c0.316-0.815,0.822-1.454,1.52-1.914s1.486-0.691,2.368-0.691
			C68.904,26.898,69.934,27.307,70.704,28.122z"/>
		<path fill="#58595B" d="M84.902,32.957h-8.367c0.039,1.118,0.348,1.947,0.927,2.486c0.579,0.54,1.296,0.809,2.151,0.809
			c0.75,0,1.385-0.19,1.904-0.572c0.52-0.381,0.839-0.888,0.957-1.52h2.408c-0.146,0.763-0.448,1.441-0.908,2.033
			c-0.461,0.592-1.059,1.056-1.796,1.391c-0.737,0.335-1.559,0.503-2.467,0.503c-1.052,0-1.983-0.224-2.792-0.671
			s-1.444-1.092-1.904-1.934c-0.461-0.842-0.691-1.835-0.691-2.98c0-1.131,0.23-2.118,0.691-2.96
			c0.46-0.842,1.095-1.486,1.904-1.934c0.809-0.447,1.74-0.671,2.792-0.671c1.066,0,1.997,0.221,2.792,0.661
			c0.797,0.441,1.408,1.046,1.836,1.815c0.428,0.77,0.642,1.628,0.642,2.576C84.981,32.358,84.955,32.681,84.902,32.957z
			 M82.347,30.145c-0.271-0.48-0.638-0.835-1.105-1.066c-0.467-0.23-0.977-0.345-1.53-0.345c-0.881,0-1.618,0.27-2.21,0.809
			c-0.592,0.54-0.915,1.335-0.967,2.388h6.177C82.738,31.22,82.616,30.625,82.347,30.145z"/>
	</g>
	<g clip-path="url(#SVGID_2_)">
		<path fill="#414042" d="M10.967,58.36h-6.56l-1.188,3.368H0.534L6.257,46.43H9.14l5.701,15.298h-2.685L10.967,58.36z
			 M10.263,56.423l-2.575-7.264l-2.575,7.264H10.263z"/>
		<path fill="#414042" d="M27.321,50.766c0.851,0.91,1.276,2.208,1.276,3.896v7.065h-2.509v-6.801c0-1.086-0.279-1.926-0.836-2.521
			s-1.32-0.892-2.289-0.892c-0.998,0-1.797,0.319-2.399,0.958c-0.602,0.639-0.903,1.574-0.903,2.807v6.449h-2.509V49.6h2.509v2.663
			c0.323-0.91,0.866-1.614,1.629-2.113c0.763-0.499,1.644-0.749,2.642-0.749C25.34,49.401,26.47,49.856,27.321,50.766z"/>
		<path fill="#414042" d="M33.375,49.6l3.632,8.915l3.368-8.915h2.795l-7.33,17.895h-2.795l2.62-6.053L30.557,49.6H33.375z"/>
		<path fill="#414042" d="M62.252,49.6l-3.368,12.128h-2.773l-2.993-9.377l-3.038,9.377h-2.751L43.961,49.6h2.531l2.311,9.817
			l3.038-9.817h2.641l3.082,9.817l2.312-9.817H62.252z"/>
		<path fill="#414042" d="M74.579,50.766c0.851,0.91,1.276,2.208,1.276,3.896v7.065h-2.509v-6.801c0-1.086-0.279-1.926-0.836-2.521
			s-1.32-0.892-2.289-0.892c-0.998,0-1.797,0.319-2.399,0.958c-0.602,0.639-0.903,1.574-0.903,2.807v6.449h-2.509V45.439h2.509
			v6.823c0.323-0.91,0.866-1.614,1.629-2.113c0.763-0.499,1.644-0.749,2.642-0.749C72.598,49.401,73.728,49.856,74.579,50.766z"/>
		<path fill="#414042" d="M90.404,56.159h-9.333c0.044,1.248,0.389,2.172,1.035,2.773c0.646,0.602,1.445,0.902,2.399,0.902
			c0.836,0,1.544-0.212,2.124-0.638c0.579-0.425,0.936-0.991,1.067-1.695h2.686c-0.162,0.851-0.499,1.607-1.013,2.267
			s-1.182,1.178-2.003,1.552c-0.822,0.374-1.739,0.562-2.752,0.562c-1.174,0-2.212-0.25-3.114-0.749
			c-0.902-0.499-1.61-1.218-2.124-2.157c-0.514-0.939-0.771-2.047-0.771-3.324c0-1.262,0.257-2.362,0.771-3.302
			c0.514-0.938,1.222-1.658,2.124-2.157s1.94-0.749,3.114-0.749c1.188,0,2.227,0.246,3.115,0.737
			c0.888,0.492,1.569,1.167,2.047,2.025c0.477,0.859,0.715,1.816,0.715,2.873C90.492,55.491,90.463,55.851,90.404,56.159z
			 M87.554,53.022c-0.301-0.535-0.712-0.932-1.232-1.188c-0.521-0.256-1.09-0.385-1.706-0.385c-0.983,0-1.805,0.301-2.465,0.902
			c-0.66,0.602-1.02,1.49-1.079,2.664h6.889C87.99,54.222,87.854,53.558,87.554,53.022z"/>
		<path fill="#414042" d="M97.624,50.095c0.763-0.462,1.644-0.693,2.642-0.693v2.729h-0.749c-1.101,0-1.984,0.268-2.652,0.803
			s-1.001,1.42-1.001,2.652v6.141h-2.51V49.6h2.51v2.377C96.273,51.184,96.86,50.557,97.624,50.095z"/>
		<path fill="#414042" d="M113.758,56.159h-9.332c0.044,1.248,0.388,2.172,1.034,2.773c0.646,0.602,1.445,0.902,2.399,0.902
			c0.836,0,1.544-0.212,2.124-0.638c0.579-0.425,0.936-0.991,1.067-1.695h2.686c-0.162,0.851-0.499,1.607-1.013,2.267
			s-1.182,1.178-2.003,1.552c-0.822,0.374-1.739,0.562-2.752,0.562c-1.174,0-2.212-0.25-3.114-0.749
			c-0.902-0.499-1.61-1.218-2.124-2.157c-0.514-0.939-0.771-2.047-0.771-3.324c0-1.262,0.257-2.362,0.771-3.302
			c0.514-0.938,1.222-1.658,2.124-2.157s1.94-0.749,3.114-0.749c1.188,0,2.227,0.246,3.115,0.737
			c0.888,0.492,1.569,1.167,2.047,2.025c0.477,0.859,0.715,1.816,0.715,2.873C113.846,55.491,113.816,55.851,113.758,56.159z
			 M110.907,53.022c-0.301-0.535-0.712-0.932-1.232-1.188c-0.521-0.256-1.09-0.385-1.706-0.385c-0.983,0-1.805,0.301-2.465,0.902
			c-0.66,0.602-1.021,1.49-1.078,2.664h6.889C111.344,54.222,111.208,53.558,110.907,53.022z"/>
	</g>
	<g clip-path="url(#SVGID_2_)">
		<path fill="#6D6E71" d="M8.364,11.697H3.388l-0.902,2.555H0.449L4.791,2.646h2.187l4.325,11.605H9.266L8.364,11.697z M7.83,10.227
			l-1.954-5.51l-1.954,5.51H7.83z"/>
		<path fill="#6D6E71" d="M20.77,5.936c0.646,0.69,0.968,1.675,0.968,2.956v5.36h-1.903v-5.16c0-0.824-0.211-1.461-0.635-1.912
			c-0.423-0.451-1.001-0.676-1.736-0.676c-0.757,0-1.364,0.242-1.82,0.727s-0.685,1.194-0.685,2.129v4.893h-1.903V5.051h1.903v2.021
			c0.245-0.69,0.657-1.225,1.236-1.603C16.773,5.09,17.441,4.9,18.199,4.9C19.267,4.9,20.124,5.246,20.77,5.936z"/>
		<path fill="#6D6E71" d="M25.362,5.051l2.755,6.763l2.555-6.763h2.121l-5.56,13.576h-2.121l1.987-4.592l-3.874-8.983H25.362z"/>
		<path fill="#6D6E71" d="M40.992,5.501c0.712,0.379,1.269,0.924,1.67,1.637c0.4,0.712,0.601,1.547,0.601,2.504
			c0,0.969-0.201,1.81-0.601,2.521c-0.401,0.713-0.958,1.258-1.67,1.637s-1.514,0.567-2.405,0.567s-1.689-0.189-2.396-0.567
			s-1.264-0.927-1.67-1.645c-0.406-0.718-0.609-1.556-0.609-2.513c0-0.957,0.203-1.792,0.609-2.504s0.963-1.258,1.67-1.637
			c0.707-0.378,1.505-0.567,2.396-0.567S40.279,5.124,40.992,5.501z M37.234,6.921c-0.412,0.223-0.743,0.565-0.993,1.027
			c-0.25,0.462-0.376,1.027-0.376,1.695c0,0.679,0.125,1.247,0.376,1.704s0.582,0.796,0.993,1.019
			c0.412,0.223,0.863,0.334,1.353,0.334s0.941-0.111,1.353-0.334c0.412-0.223,0.743-0.562,0.994-1.019s0.376-1.024,0.376-1.704
			c0-0.667-0.125-1.232-0.376-1.695c-0.25-0.461-0.582-0.804-0.994-1.027c-0.412-0.223-0.863-0.334-1.353-0.334
			S37.646,6.698,37.234,6.921z"/>
		<path fill="#6D6E71" d="M53.147,5.936c0.646,0.69,0.968,1.675,0.968,2.956v5.36h-1.903v-5.16c0-0.824-0.211-1.461-0.635-1.912
			c-0.423-0.451-1.001-0.676-1.736-0.676c-0.757,0-1.364,0.242-1.82,0.727s-0.685,1.194-0.685,2.129v4.893h-1.903V5.051h1.903v2.021
			c0.245-0.69,0.657-1.225,1.236-1.603C49.151,5.09,49.819,4.9,50.576,4.9C51.645,4.9,52.501,5.246,53.147,5.936z"/>
		<path fill="#6D6E71" d="M65.137,10.027h-7.08c0.034,0.946,0.295,1.647,0.785,2.104c0.489,0.457,1.096,0.685,1.82,0.685
			c0.635,0,1.171-0.161,1.611-0.484c0.44-0.323,0.71-0.751,0.81-1.286h2.037c-0.123,0.646-0.378,1.219-0.768,1.72
			c-0.39,0.501-0.896,0.894-1.52,1.177c-0.624,0.284-1.319,0.426-2.087,0.426c-0.891,0-1.678-0.189-2.363-0.567
			s-1.222-0.924-1.611-1.637c-0.39-0.712-0.584-1.553-0.584-2.521c0-0.957,0.195-1.792,0.584-2.504s0.927-1.258,1.611-1.637
			c0.685-0.378,1.472-0.567,2.363-0.567c0.902,0,1.689,0.187,2.363,0.559c0.673,0.373,1.191,0.885,1.553,1.536
			c0.362,0.651,0.543,1.378,0.543,2.179C65.204,9.521,65.181,9.793,65.137,10.027z M62.974,7.647
			c-0.228-0.406-0.54-0.707-0.935-0.902c-0.395-0.194-0.826-0.292-1.294-0.292c-0.746,0-1.369,0.228-1.87,0.685
			s-0.774,1.13-0.818,2.021h5.227C63.306,8.558,63.202,8.054,62.974,7.647z"/>
	</g>
</g>
</svg>
